<?xml version="1.0" encoding="utf-8"?>
<svg viewBox="0 0 1009.54 839.64" xmlns="http://www.w3.org/2000/svg">
  <path d="M681.78,141.58c-64.72-2.25-126.36-23.14-185.22-46S379.4,47.39,316.23,35.28c-40.63-7.79-87.1-8.89-119.83,12.89-31.51,21-41.69,57.15-47.16,90.73-4.12,25.26-6.54,51.85,4.74,75.49,7.84,16.42,21.74,30.22,31.36,45.95,33.47,54.72,9.81,122.2-26.45,175.63-17,25.07-36.75,49-49.88,75.66s-19.2,57.25-7.71,84.47c11.38,27,38.51,47.24,67.9,61.49,59.69,28.95,130,37.23,198.61,41.92,151.83,10.39,304.46,5.89,456.69,1.39,56.34-1.67,112.92-3.36,168.34-12.07,30.78-4.84,62.55-12.51,84.9-31.05,28.36-23.53,35.39-63.37,16.38-92.88-31.88-49.49-120-61.78-142.31-114.89-12.26-29.24.33-61.8,18.16-88.92,38.24-58.16,102.33-109.19,105.7-175.67,2.32-45.66-28.49-91.39-76.13-113-49.93-22.64-119.18-19.8-156,17.69C805.59,128.71,738.93,143.56,681.78,141.58Z" transform="matrix(1, 0, 0, 1, -95.230006, -30.179999)" fill="#38d39f" opacity="0.1"/>
  <ellipse cx="483.49" cy="780.99" rx="303.97" ry="41.12" fill="#38d39f" opacity="0.1"/>
  <path d="M428.24,688.75s21-3.36,33.6,11.48c0,0-9.24,7.28-29.12-2.8Z" transform="matrix(1, 0, 0, 1, -95.230006, -30.179999)" fill="#38d39f"/>
  <path d="M426,688.42S412.6,705,419.17,723.27c0,0,10.92-4.37,12.11-26.63Z" transform="matrix(1, 0, 0, 1, -95.230006, -30.179999)" fill="#38d39f"/>
  <path d="M414,661.31s8.4-15.4,42,6.16c0,0-4.48,10.36-19.32,9.52S417.87,669.43,414,661.31Z" transform="matrix(1, 0, 0, 1, -95.230006, -30.179999)" fill="#38d39f"/>
  <path d="M411.79,660.2s-17.43-2-19.12,37.9c0,0,11.05,2.3,18.9-10.33S416.17,668.08,411.79,660.2Z" transform="matrix(1, 0, 0, 1, -95.230006, -30.179999)" fill="#38d39f"/>
  <path d="M401.63,628.38s9.8-27.17,45.37-7.85c0,0-8.12,24.93-41.73,17.09Z" transform="matrix(1, 0, 0, 1, -95.230006, -30.179999)" fill="#38d39f"/>
  <path d="M390.71,587.77s18.48-27.44,51.25-2c0,0-11.48,25.76-48.45,11.76Z" transform="matrix(1, 0, 0, 1, -95.230006, -30.179999)" fill="#38d39f"/>
  <path d="M386.79,549.13s21.56-25.2,54,0c0,0-20.45,22.12-54,6.44Z" transform="matrix(1, 0, 0, 1, -95.230006, -30.179999)" fill="#38d39f"/>
  <path d="M383.43,511.61s21.84-26.33,52.93-1.4c0,0-24.65,23.24-52.93,7.56Z" transform="matrix(1, 0, 0, 1, -95.230006, -30.179999)" fill="#38d39f"/>
  <path d="M385.39,478.28s23-33.88,52.09-10.92c0,0-24.65,29.13-52.09,17.36Z" transform="matrix(1, 0, 0, 1, -95.230006, -30.179999)" fill="#38d39f"/>
  <path d="M390.71,439.36s24.36-33.6,52.65-7.84c0,0-28.85,29.12-52.65,14Z" transform="matrix(1, 0, 0, 1, -95.230006, -30.179999)" fill="#38d39f"/>
  <path d="M398.84,404.57s28.83-31.57,54-19c0,0-30.06,33.53-55.26,27.37Z" transform="matrix(1, 0, 0, 1, -95.230006, -30.179999)" fill="#38d39f"/>
  <path d="M408.91,371.6s33.33-38.65,52.65-25.77c0,0-24.52,30-55,33.05Z" transform="matrix(1, 0, 0, 1, -95.230006, -30.179999)" fill="#38d39f"/>
  <path d="M423.46,333.34s29.14-31.58,50.42-23.74c0,0-24.92,32.77-54.33,33.61Z" transform="matrix(1, 0, 0, 1, -95.230006, -30.179999)" fill="#38d39f"/>
  <path d="M436.64,297.56s32.2-30.24,46.2-24.92c0,0-23.24,33.6-47.6,31.64Z" transform="matrix(1, 0, 0, 1, -95.230006, -30.179999)" fill="#38d39f"/>
  <path d="M449.52,264.52s27.72-36.12,42.84-33.32c0,0-16.8,32.2-42.84,37Z" transform="matrix(1, 0, 0, 1, -95.230006, -30.179999)" fill="#38d39f"/>
  <path d="M463.49,220s24.51-27.7,37.74-27.63c0,0-19.34,37-38.74,36.66Z" transform="matrix(1, 0, 0, 1, -95.230006, -30.179999)" fill="#38d39f"/>
  <path d="M471.78,190.31l23.66-57.68s1.19,52.14-26.68,68.38Z" transform="matrix(1, 0, 0, 1, -95.230006, -30.179999)" fill="#38d39f"/>
  <path d="M481.38,126.7s3.92-48.16,1.4-52.08c0,0,16.93,40-1.56,73.36Z" transform="matrix(1, 0, 0, 1, -95.230006, -30.179999)" fill="#38d39f"/>
  <path d="M400.72,627.73s-24.55-15.21-40.43,22c0,0,21.84,14.5,43.31-12.51Z" transform="matrix(1, 0, 0, 1, -95.230006, -30.179999)" fill="#38d39f"/>
  <path d="M389.93,586.22s-30.1-13.73-44.71,25.12c0,0,23.26,16,47.45-15.3Z" transform="matrix(1, 0, 0, 1, -95.230006, -30.179999)" fill="#38d39f"/>
  <path d="M385.39,551.44s-21.56-25.2-54,0c0,0,20.44,22.12,54,6.44Z" transform="matrix(1, 0, 0, 1, -95.230006, -30.179999)" fill="#38d39f"/>
  <path d="M382.7,511.61s-21.85-26.33-52.93-1.4c0,0,24.64,23.24,52.93,7.56Z" transform="matrix(1, 0, 0, 1, -95.230006, -30.179999)" fill="#38d39f"/>
  <path d="M385.39,479.24s-15.32-37.95-48.62-21.63c0,0,18,33.66,47.27,27.93Z" transform="matrix(1, 0, 0, 1, -95.230006, -30.179999)" fill="#38d39f"/>
  <path d="M392.64,439.17s-15.22-38.61-49-20.71c0,0,20.68,35.39,47.5,26.68Z" transform="matrix(1, 0, 0, 1, -95.230006, -30.179999)" fill="#38d39f"/>
  <path d="M402.08,404.77s-6-42.34-33.95-46.13c0,0,5.93,44.64,30.22,53.75Z" transform="matrix(1, 0, 0, 1, -95.230006, -30.179999)" fill="#38d39f"/>
  <path d="M409.63,371.67s-2.35-51-25.5-52.77c0,0,.78,38.7,22.89,60Z" transform="matrix(1, 0, 0, 1, -95.230006, -30.179999)" fill="#38d39f"/>
  <path d="M425.87,331.88s-6.91-42.4-29-47.59c0,0,2.74,41.07,26.81,58Z" transform="matrix(1, 0, 0, 1, -95.230006, -30.179999)" fill="#38d39f"/>
  <path d="M439.26,297.87s-.24-44.18-13.74-50.67c0,0-8.37,40,9.83,56.31Z" transform="matrix(1, 0, 0, 1, -95.230006, -30.179999)" fill="#38d39f"/>
  <path d="M450.55,264s-1.9-45.5-15.87-51.91c0,0-4.79,36,13.77,54.88Z" transform="matrix(1, 0, 0, 1, -95.230006, -30.179999)" fill="#38d39f"/>
  <path d="M465.45,223.6s-.09-37-10.07-45.68c0,0-9.92,40.54,4.86,53.12Z" transform="matrix(1, 0, 0, 1, -95.230006, -30.179999)" fill="#38d39f"/>
  <path d="M470.6,188.49l-9.7-61.59s-13.2,50.47,10.16,72.7Z" transform="matrix(1, 0, 0, 1, -95.230006, -30.179999)" fill="#38d39f"/>
  <path d="M472.5,127.28s-24.93-41.39-24.41-46c0,0,2.64,43.4,34,65Z" transform="matrix(1, 0, 0, 1, -95.230006, -30.179999)" fill="#38d39f"/>
  <path d="M475.42,115.06S451.9,56.25,441.26,51.49c0,0,33.6,17.08,36.12,61.89Z" transform="matrix(1, 0, 0, 1, -95.230006, -30.179999)" fill="#38d39f"/>
  <path d="M462.36,229.35l-1.61-.49c19.85-64.73,24.81-106,13.95-116.34l1.16-1.22C487.36,122.21,482.7,163,462.36,229.35Z" transform="matrix(1, 0, 0, 1, -95.230006, -30.179999)" fill="#444053"/>
  <path d="M407.7,380.87l-2.37-.84c2.1-5.93,4.37-11.95,6.75-17.89,20.72-51.64,38.36-99.67,49.67-136.55l2.07-1c-11.33,36.95-28.65,86.83-49.4,138.53C412.05,369,409.79,375,407.7,380.87Z" transform="matrix(1, 0, 0, 1, -95.230006, -30.179999)" fill="#444053"/>
  <path d="M457.79,737.2c-.32-.36-32.5-36.58-54.92-98.44A364.43,364.43,0,0,1,381.17,526c-1.54-48.13,8.56-101.87,25.86-150.68l1.88,2.2c-38.83,109.56-23.4,203.45-2.94,260,22.2,61.29,54,97.13,54.32,97.48Z" transform="matrix(1, 0, 0, 1, -95.230006, -30.179999)" fill="#444053"/>
  <rect x="348.37" y="232.61" width="4.97" height="24.04" rx="2.29" ry="2.29" fill="#3a3768"/>
  <rect x="348.19" y="276.63" width="5.6" height="41.84" rx="2.29" ry="2.29" fill="#3a3768"/>
  <circle cx="523.21" cy="175.36" r="4.77" fill="#e6e8ec"/>
  <path d="M845.43,156.93s-84.2-5.08-74.28,53.92c0,0-2,10.43,7.48,15.16,0,0,.15-4.37,8.64-2.88a39.5,39.5,0,0,0,9.15.44A19.06,19.06,0,0,0,807.6,219h0s23.67-9.78,32.87-48.46c0,0,6.81-8.44,6.54-10.61L832.8,166s4.86,10.25,1,18.77c0,0-.46-18.4-3.19-18-.55.08-7.38,3.55-7.38,3.55s8.35,17.85,2.05,30.83c0,0,2.39-22-4.66-29.54l-10,5.84s9.76,18.44,3.14,33.49c0,0,1.7-23.08-5.25-32.07l-9.06,7.07s9.17,18.17,3.58,30.65c0,0-.73-26.86-5.54-28.89,0,0-7.93,7-9.14,9.86,0,0,6.28,13.2,2.38,20.16,0,0-2.39-17.9-4.35-18,0,0-7.9,11.86-8.72,20,0,0,.34-12.09,6.81-21.12,0,0-7.64,1.31-12.1,6.26,0,0,1.23-8.38,14.05-9.12,0,0,6.53-9,8.27-9.54,0,0-12.74-1.07-20.47,2.36,0,0,6.8-7.91,22.81-4.31l8.95-7.31s-16.78-2.29-23.9.24c0,0,8.19-7,26.31-1.9l9.74-5.82s-14.31-3.08-22.83-2c0,0,9-4.85,25.69.41l7-3.13s-10.48-2.06-13.55-2.39-3.23-1.17-3.23-1.17a36.35,36.35,0,0,1,19.69,2.19S845.68,157.86,845.43,156.93Z" transform="matrix(1, 0, 0, 1, -95.230006, -30.179999)" fill="#38d39f"/>
  <path d="M759.06,130.69s-38-2.29-33.56,24.37c0,0-.89,4.71,3.38,6.85,0,0,.07-2,3.91-1.31a17.51,17.51,0,0,0,4.13.2,8.56,8.56,0,0,0,5.05-2.08h0s10.7-4.42,14.86-21.9c0,0,3.07-3.81,2.95-4.79l-6.42,2.74s2.19,4.63.47,8.48c0,0-.21-8.31-1.44-8.12-.25,0-3.34,1.61-3.34,1.61s3.78,8.07.93,13.93c0,0,1.08-9.94-2.11-13.35L743.35,140s4.41,8.33,1.42,15.13c0,0,.77-10.43-2.37-14.49l-4.09,3.2s4.14,8.21,1.62,13.85c0,0-.34-12.14-2.51-13.06,0,0-3.58,3.16-4.13,4.46,0,0,2.84,6,1.08,9.11,0,0-1.08-8.09-2-8.13,0,0-3.57,5.36-3.94,9a19.52,19.52,0,0,1,3.08-9.54,10.76,10.76,0,0,0-5.47,2.83s.56-3.79,6.35-4.12c0,0,3-4.07,3.74-4.32,0,0-5.76-.48-9.25,1.07,0,0,3.07-3.57,10.3-1.95l4-3.3s-7.59-1-10.8.11c0,0,3.7-3.16,11.89-.86l4.4-2.63s-6.47-1.39-10.32-.89c0,0,4.07-2.19,11.61.18l3.15-1.41s-4.74-.93-6.13-1.08-1.46-.53-1.46-.53a16.39,16.39,0,0,1,8.9,1S759.18,131.11,759.06,130.69Z" transform="matrix(1, 0, 0, 1, -95.230006, -30.179999)" fill="#38d39f"/>
  <path d="M532.2,798.6l-20.12,2-.57-6.73a6,6,0,0,1,2.19.48c3.67,2.64,14.16.54,17.71-.3h0Z" transform="matrix(1, 0, 0, 1, -95.230006, -30.179999)" opacity="0.1"/>
  <path d="M677.71,794.87l-.56,6.73-20.13-2,.8-4.55c3.55.85,14,2.94,17.7.3A6,6,0,0,1,677.71,794.87Z" transform="matrix(1, 0, 0, 1, -95.230006, -30.179999)" opacity="0.1"/>
  <path d="M640.24,592a3.62,3.62,0,0,0-3,4.67C638.08,600.85,640.24,592,640.24,592Z" transform="matrix(1, 0, 0, 1, -95.230006, -30.179999)" opacity="0.1"/>
  <path d="M650.24,628.45s15.67-1.93,19.34.74" transform="matrix(1, 0, 0, 1, -95.230006, -30.179999)" opacity="0.1"/>
  <path d="M656.58,631s9.33.33,11.5,1.5" transform="matrix(1, 0, 0, 1, -95.230006, -30.179999)" opacity="0.1"/>
  <path d="M658.41,634.35s8.5-.33,9.67,1" transform="matrix(1, 0, 0, 1, -95.230006, -30.179999)" opacity="0.1"/>
  <path d="M538.54,681.35s7.28,3.79,6.54,7.66S538.54,681.35,538.54,681.35Z" transform="matrix(1, 0, 0, 1, -95.230006, -30.179999)" opacity="0.1"/>
  <path d="M651.33,685.58s-5.5,4.53-5.35,8.27" transform="matrix(1, 0, 0, 1, -95.230006, -30.179999)" opacity="0.1"/>
  <path d="M524.33,774.85s0,4.25,7.87,10.5" transform="matrix(1, 0, 0, 1, -95.230006, -30.179999)" opacity="0.1"/>
  <path d="M663.24,764.85s-.84,8.84-8.5,13.42" transform="matrix(1, 0, 0, 1, -95.230006, -30.179999)" opacity="0.1"/>
  <path d="M500,814.48s8.17-2.52,11.56,2.26" transform="matrix(1, 0, 0, 1, -95.230006, -30.179999)" opacity="0.1"/>
  <path d="M689.27,815.48s-13.53-.79-13,2.87" transform="matrix(1, 0, 0, 1, -95.230006, -30.179999)" opacity="0.1"/>
  <ellipse cx="864.17" cy="773.34" rx="26.93" ry="4.55" fill="#38d39f" opacity="0.1"/>
  <ellipse cx="91.09" cy="810.68" rx="26.93" ry="4.55" fill="#38d39f" opacity="0.1"/>
  <ellipse cx="195.26" cy="835.09" rx="26.93" ry="4.55" fill="#38d39f" opacity="0.1"/>
  <ellipse cx="805.22" cy="822.1" rx="40.21" ry="6.8" fill="#38d39f"/>
  <path d="M917.08,841.16a11.71,11.71,0,0,0,3.83-5.79c.5-2.29-.48-5-2.68-5.89-2.46-.94-5.09.77-7.08,2.49s-4.28,3.69-6.89,3.32a10.48,10.48,0,0,0,3.25-9.81,4.13,4.13,0,0,0-.91-2c-1.36-1.46-3.84-.84-5.47.32-5.2,3.65-6.65,10.72-6.68,17.07-.53-2.29-.08-4.68-.1-7s-.65-5-2.64-6.23a7.94,7.94,0,0,0-4-.94c-2.34-.09-4.94.15-6.54,1.86-2,2.12-1.46,5.68.26,8s4.35,3.81,6.77,5.42a15,15,0,0,1,4.83,4.61,4.16,4.16,0,0,1,.36.83H908A41.06,41.06,0,0,0,917.08,841.16Z" transform="matrix(1, 0, 0, 1, -95.230006, -30.179999)" fill="#38d39f"/>
  <path d="M291.88,753.45s5.5,7.19-2.53,18-14.65,20-12,26.77c0,0,12.12-20.15,22-20.43S302.73,765.57,291.88,753.45Z" transform="matrix(1, 0, 0, 1, -95.230006, -30.179999)" fill="#38d39f"/>
  <path d="M291.88,753.45a8.83,8.83,0,0,1,1.12,2.26c9.62,11.3,14.75,21.85,5.5,22.11-8.61.25-18.94,15.65-21.42,19.54.08.3.18.59.29.89,0,0,12.12-20.15,22-20.43S302.73,765.57,291.88,753.45Z" transform="matrix(1, 0, 0, 1, -95.230006, -30.179999)" opacity="0.1"/>
  <path d="M302.09,762.61c0,2.53-.28,4.58-.63,4.58s-.63-2.05-.63-4.58.35-1.34.7-1.34S302.09,760.08,302.09,762.61Z" transform="matrix(1, 0, 0, 1, -95.230006, -30.179999)" fill="#ffd037"/>
  <path d="M305.6,765.63c-2.22,1.21-4.16,1.94-4.32,1.63s1.49-1.54,3.71-2.75,1.35-.33,1.51,0S307.82,764.42,305.6,765.63Z" transform="matrix(1, 0, 0, 1, -95.230006, -30.179999)" fill="#ffd037"/>
  <path d="M262.87,753.45s-5.5,7.19,2.53,18,14.65,20,12,26.77c0,0-12.11-20.15-22-20.43S252,765.57,262.87,753.45Z" transform="matrix(1, 0, 0, 1, -95.230006, -30.179999)" fill="#38d39f"/>
  <path d="M262.87,753.45a9,9,0,0,0-1.13,2.26c-9.62,11.3-14.74,21.85-5.5,22.11,8.62.25,18.95,15.65,21.43,19.54a7.76,7.76,0,0,1-.3.89s-12.11-20.15-22-20.43S252,765.57,262.87,753.45Z" transform="matrix(1, 0, 0, 1, -95.230006, -30.179999)" opacity="0.1"/>
  <path d="M252.65,762.61c0,2.53.29,4.58.64,4.58s.63-2.05.63-4.58-.35-1.34-.7-1.34S252.65,760.08,252.65,762.61Z" transform="matrix(1, 0, 0, 1, -95.230006, -30.179999)" fill="#ffd037"/>
  <path d="M249.15,765.63c2.22,1.21,4.15,1.94,4.32,1.63s-1.5-1.54-3.72-2.75-1.34-.33-1.51,0S246.93,764.42,249.15,765.63Z" transform="matrix(1, 0, 0, 1, -95.230006, -30.179999)" fill="#ffd037"/>
  <path d="M254.4,797.31s15.36-.48,20-3.77,23.63-7.24,24.77-1.95,23.09,26.29,5.75,26.43-40.3-2.7-44.92-5.51S254.4,797.31,254.4,797.31Z" transform="matrix(1, 0, 0, 1, -95.230006, -30.179999)" fill="#a8a8a8"/>
  <path d="M305.22,816.18c-17.34.14-40.3-2.7-44.92-5.51-3.51-2.15-4.92-9.84-5.39-13.38l-.51,0s1,12.38,5.59,15.2,27.58,5.65,44.92,5.51c5,0,6.73-1.82,6.64-4.46C310.85,815.16,308.94,816.15,305.22,816.18Z" transform="matrix(1, 0, 0, 1, -95.230006, -30.179999)" opacity="0.2"/>
</svg>